<?xml version="1.0" standalone="no"?>
<!DOCTYPE svg PUBLIC "-//W3C//DTD SVG 20010904//EN"
 "http://www.w3.org/TR/2001/REC-SVG-20010904/DTD/svg10.dtd">
<svg version="1.0" xmlns="http://www.w3.org/2000/svg"
 width="474.000000pt" height="381.000000pt" viewBox="0 0 474.000000 381.000000"
 preserveAspectRatio="xMidYMid meet">

<g transform="translate(0.000000,381.000000) scale(0.100000,-0.100000)"
fill="##FFEB3B" stroke="none">
<path d="M210 645 l0 -495 65 0 65 0 2 353 3 352 18 -115 c34 -216 88 -545 94
-567 5 -21 11 -23 68 -23 l63 0 10 58 c5 31 30 176 53 322 l44 265 6 -285 c3
-157 7 -302 8 -322 l1 -38 70 0 70 0 0 278 c0 154 -3 340 -6 414 l-7 135 -106
25 c-58 14 -107 24 -107 24 -1 -1 -21 -129 -44 -286 -23 -157 -45 -294 -49
-304 -4 -12 -26 108 -56 305 -26 178 -53 329 -59 335 -9 10 -177 64 -198 64
-5 0 -8 -223 -8 -495z"/>
<path d="M4300 1092 c-107 -36 -161 -77 -203 -156 -21 -39 -22 -54 -25 -336
-2 -192 0 -308 7 -331 14 -46 77 -104 128 -118 49 -14 127 -14 176 0 51 14
109 74 126 129 15 49 23 211 11 229 -5 8 -27 10 -72 5 l-66 -7 -4 -99 c-3 -91
-5 -102 -27 -119 -33 -27 -77 -24 -108 7 l-26 26 5 286 c3 203 8 294 17 310
11 22 65 52 91 52 5 0 19 -9 30 -20 16 -16 20 -33 20 -90 0 -79 -1 -79 89 -59
47 10 51 13 57 45 8 45 -10 169 -30 200 -39 58 -109 75 -196 46z"/>
<path d="M3873 973 l-63 -14 0 -217 c0 -119 -3 -301 -7 -404 l-6 -188 81 0 82
0 0 343 c0 189 3 378 6 420 8 89 13 86 -93 60z"/>
<path d="M960 823 c0 -71 3 -252 7 -401 l6 -272 209 0 208 0 0 49 0 48 -52 7
c-29 3 -90 6 -135 6 l-83 0 0 121 0 120 43 -5 c23 -3 71 -7 107 -8 65 -3 65
-3 68 26 8 67 1 73 -95 80 -133 11 -123 2 -123 117 0 73 3 99 13 99 6 0 55 -7
107 -15 52 -8 107 -15 123 -15 26 0 27 2 27 48 l0 49 -192 31 c-106 18 -203
35 -215 38 -23 6 -23 6 -23 -123z"/>
<path d="M3602 920 c-18 -4 -36 -10 -39 -13 -3 -4 -8 -104 -12 -224 l-6 -218
-70 209 -70 208 -70 -6 c-38 -4 -83 -10 -100 -14 l-30 -8 -3 -353 -2 -352 67
3 68 3 5 260 c4 202 7 254 16 235 6 -14 47 -132 90 -263 l79 -238 80 3 80 3 3
388 2 387 -27 -1 c-16 -1 -43 -5 -61 -9z"/>
<path d="M1539 831 c-66 -36 -71 -60 -67 -329 3 -271 8 -287 89 -332 39 -22
56 -25 144 -25 168 0 225 46 225 181 l0 74 -70 0 -70 0 0 -58 c0 -78 -18 -102
-74 -102 -80 0 -80 -1 -87 247 -7 255 -5 263 64 263 66 0 85 -20 89 -88 l3
-57 73 -3 72 -3 0 51 c0 132 -75 190 -255 197 -85 3 -105 1 -136 -16z"/>
<path d="M2789 823 l-37 -4 -81 -324 c-44 -179 -81 -329 -81 -335 0 -6 29 -10
70 -10 68 0 70 1 76 28 3 15 10 44 15 65 l10 37 89 0 88 0 6 -28 c3 -15 8 -44
12 -64 l6 -38 79 0 c77 0 79 1 74 23 -22 90 -145 644 -145 650 0 7 -112 7
-181 0z m118 -445 c-7 -4 -38 -8 -70 -8 -59 0 -59 0 -53 28 19 97 58 279 63
292 3 8 20 -57 38 -145 24 -117 30 -162 22 -167z"/>
<path d="M2030 486 l0 -336 81 0 82 0 -4 147 -4 148 82 3 82 3 3 -148 3 -148
78 -3 77 -3 0 331 0 331 -77 -3 -78 -3 -3 -133 -3 -133 -82 3 -82 3 -3 133 -3
132 -37 0 c-20 0 -54 3 -74 6 l-38 7 0 -337z"/>
</g>
</svg>
